<svg width="100" height="16" viewBox="0 0 100 16" fill="none" xmlns="http://www.w3.org/2000/svg">
<path d="M2.93478e-05 13.392C0.408029 12.78 0.744029 12.21 1.00803 11.682C1.28403 11.154 1.54803 10.542 1.80003 9.846C2.65203 10.338 3.64203 10.722 4.77003 10.998C5.89803 11.274 6.94803 11.412 7.92003 11.412C8.91603 11.412 9.61803 11.328 10.026 11.16C10.434 10.98 10.638 10.788 10.638 10.584C10.638 9.852 9.52203 9.486 7.29003 9.486C4.84203 9.486 3.06603 9.234 1.96203 8.73C0.858029 8.214 0.306029 7.386 0.306029 6.246C0.306029 4.626 0.978029 3.432 2.32203 2.664C3.66603 1.896 5.41203 1.512 7.56003 1.512C8.80803 1.512 10.086 1.674 11.394 1.998C12.714 2.31 13.902 2.742 14.958 3.294C14.61 4.086 14.244 5.052 13.86 6.192C13.788 6.432 13.728 6.612 13.68 6.732C13.068 6.24 12.144 5.832 10.908 5.508C9.67203 5.172 8.58003 5.004 7.63203 5.004C6.49203 5.004 5.72403 5.082 5.32803 5.238C4.93203 5.382 4.73403 5.598 4.73403 5.886C4.73403 6.174 5.00403 6.408 5.54403 6.588C6.09603 6.756 6.88803 6.84 7.92003 6.84C10.464 6.84 12.312 7.134 13.464 7.722C14.616 8.298 15.192 9.186 15.192 10.386C15.192 12.066 14.58 13.278 13.356 14.022C12.132 14.754 10.278 15.12 7.79403 15.12C6.46203 15.12 5.10603 14.976 3.72603 14.688C2.34603 14.388 1.10403 13.956 2.93478e-05 13.392ZM29.3369 5.094L24.8729 9.162C26.3969 11.322 27.8189 13.248 29.1389 14.94H24.3689L23.4509 13.464C22.8509 12.468 22.4549 11.82 22.2629 11.52L20.7689 12.888V14.94H16.6289C16.7249 12.66 16.7729 10.35 16.7729 8.01C16.7729 5.658 16.7249 3.3 16.6289 0.936H20.7689V8.568C21.9329 7.38 23.0309 6.222 24.0629 5.094H29.3369ZM32.4706 4.05C31.7146 4.05 31.1506 3.864 30.7786 3.492C30.4186 3.12 30.2386 2.634 30.2386 2.034C30.2386 1.446 30.4186 0.96 30.7786 0.576C31.1506 0.192 31.7146 -2.38419e-07 32.4706 -2.38419e-07C33.1906 -2.38419e-07 33.7426 0.198 34.1266 0.594C34.5106 0.978 34.7026 1.458 34.7026 2.034C34.7026 2.634 34.5166 3.12 34.1446 3.492C33.7726 3.864 33.2146 4.05 32.4706 4.05ZM30.3826 14.94C30.4666 13.008 30.5086 11.412 30.5086 10.152C30.5086 8.652 30.4606 6.972 30.3646 5.112H34.6846C34.5886 6.9 34.5406 8.58 34.5406 10.152C34.5406 11.472 34.5826 13.068 34.6666 14.94H30.3826ZM40.5464 7.74C40.5344 8.46 40.5284 9.564 40.5284 11.052C40.5284 12.84 40.5404 14.136 40.5644 14.94H36.3164L36.3344 12.906C36.3584 10.674 36.3704 8.952 36.3704 7.74C36.3704 6.588 36.3584 4.956 36.3344 2.844L36.3164 0.9H40.5644C40.5404 2.604 40.5284 3.996 40.5284 5.076C40.5284 6.276 40.5344 7.164 40.5464 7.74ZM46.2417 7.74C46.2297 8.46 46.2237 9.564 46.2237 11.052C46.2237 12.84 46.2357 14.136 46.2597 14.94H42.0117L42.0297 12.906C42.0537 10.674 42.0657 8.952 42.0657 7.74C42.0657 6.588 42.0537 4.956 42.0297 2.844L42.0117 0.9H46.2597C46.2357 2.604 46.2237 3.996 46.2237 5.076C46.2237 6.276 46.2297 7.164 46.2417 7.74ZM63.1691 5.652C61.2851 5.592 59.4551 5.556 57.6791 5.544V14.94H53.1791V5.544C51.3911 5.556 49.5671 5.592 47.7071 5.652V1.872H63.1691V5.652ZM68.7932 7.776C69.2972 5.964 70.5512 5.058 72.5552 5.058C72.9032 5.058 73.2392 5.082 73.5632 5.13L72.9872 9.162C72.1232 8.838 71.4152 8.676 70.8632 8.676C70.1792 8.676 69.6752 8.88 69.3512 9.288C69.0272 9.696 68.8652 10.242 68.8652 10.926V10.908L68.8472 12.096C68.8472 12.948 68.8712 13.896 68.9192 14.94H64.6172C64.7132 13.212 64.7612 11.58 64.7612 10.044C64.7612 8.508 64.7132 6.864 64.6172 5.112C65.4092 5.148 66.0152 5.166 66.4352 5.166C66.8792 5.166 67.4852 5.148 68.2532 5.112L68.7932 7.776ZM83.983 10.44H78.115C78.211 10.968 78.445 11.4 78.817 11.736C79.201 12.06 79.741 12.222 80.437 12.222C80.941 12.222 81.415 12.126 81.859 11.934C82.303 11.73 82.657 11.448 82.921 11.088C83.725 11.484 84.793 11.91 86.125 12.366C85.753 13.206 85.075 13.878 84.091 14.382C83.119 14.874 81.847 15.12 80.275 15.12C78.235 15.12 76.723 14.652 75.739 13.716C74.767 12.768 74.281 11.526 74.281 9.99C74.281 8.49 74.767 7.272 75.739 6.336C76.711 5.4 78.223 4.932 80.275 4.932C81.499 4.932 82.561 5.136 83.461 5.544C84.361 5.952 85.051 6.522 85.531 7.254C86.011 7.974 86.251 8.802 86.251 9.738C86.251 10.05 86.239 10.284 86.215 10.44H83.983ZM80.527 7.65C79.927 7.65 79.435 7.764 79.051 7.992C78.667 8.22 78.397 8.532 78.241 8.928H82.489C82.345 8.544 82.111 8.238 81.787 8.01C81.463 7.77 81.043 7.65 80.527 7.65ZM97.0259 10.44H91.1579C91.2539 10.968 91.4879 11.4 91.8599 11.736C92.2439 12.06 92.7839 12.222 93.4799 12.222C93.9839 12.222 94.4579 12.126 94.9019 11.934C95.3459 11.73 95.6999 11.448 95.9639 11.088C96.7679 11.484 97.8359 11.91 99.1679 12.366C98.7959 13.206 98.1179 13.878 97.1339 14.382C96.1619 14.874 94.8899 15.12 93.3179 15.12C91.2779 15.12 89.7659 14.652 88.7819 13.716C87.8099 12.768 87.3239 11.526 87.3239 9.99C87.3239 8.49 87.8099 7.272 88.7819 6.336C89.7539 5.4 91.2659 4.932 93.3179 4.932C94.5419 4.932 95.6039 5.136 96.5039 5.544C97.4039 5.952 98.0939 6.522 98.5739 7.254C99.0539 7.974 99.2939 8.802 99.2939 9.738C99.2939 10.05 99.2819 10.284 99.2579 10.44H97.0259ZM93.5699 7.65C92.9699 7.65 92.4779 7.764 92.0939 7.992C91.7099 8.22 91.4399 8.532 91.2839 8.928H95.5319C95.3879 8.544 95.1539 8.238 94.8299 8.01C94.5059 7.77 94.0859 7.65 93.5699 7.65Z" fill="#212121"/>
</svg>
