<svg width="100" height="89" viewBox="0 0 100 89" fill="none" xmlns="http://www.w3.org/2000/svg">
<g filter="url(#filter0_i_217_1085)">
<path d="M99.2427 41.6453C100.252 43.4118 100.252 45.5882 99.2427 47.3547L77.069 86.1453C76.0593 87.9118 74.1932 89 72.1736 89H27.8264C25.8068 89 23.9407 87.9118 22.931 86.1453L0.757322 47.3547C-0.25244 45.5882 -0.252441 43.4118 0.75732 41.6453L22.931 2.85468C23.9407 1.0882 25.8068 -8.91605e-08 27.8264 0L72.1736 1.9579e-06C74.1932 2.04706e-06 76.0593 1.0882 77.069 2.85468L99.2427 41.6453Z" fill="#479AFF"/>
</g>
<path d="M49.9999 42.6667C50.9204 42.6667 51.6666 41.9205 51.6666 41C51.6666 40.0795 50.9204 39.3333 49.9999 39.3333C49.0794 39.3333 48.3333 40.0795 48.3333 41C48.3333 41.9205 49.0794 42.6667 49.9999 42.6667Z" fill="white" stroke="white" stroke-width="2" stroke-linecap="round" stroke-linejoin="round"/>
<path d="M63.6667 54.6667C67.0667 51.2834 63.7001 42.4 56.1667 34.8334C48.6001 27.3 39.7167 23.9334 36.3334 27.3334C32.9334 30.7167 36.3001 39.6 43.8334 47.1667C51.4001 54.7 60.2834 58.0667 63.6667 54.6667Z" stroke="white" stroke-width="2" stroke-linecap="round" stroke-linejoin="round"/>
<path d="M56.1667 47.1667C63.7001 39.6 67.0667 30.7167 63.6667 27.3334C60.2834 23.9334 51.4001 27.3 43.8334 34.8334C36.3001 42.4 32.9334 51.2834 36.3334 54.6667C39.7167 58.0667 48.6001 54.7 56.1667 47.1667Z" stroke="white" stroke-width="2" stroke-linecap="round" stroke-linejoin="round"/>
<defs>
<filter id="filter0_i_217_1085" x="0" y="-2" width="100" height="91" filterUnits="userSpaceOnUse" color-interpolation-filters="sRGB">
<feFlood flood-opacity="0" result="BackgroundImageFix"/>
<feBlend mode="normal" in="SourceGraphic" in2="BackgroundImageFix" result="shape"/>
<feColorMatrix in="SourceAlpha" type="matrix" values="0 0 0 0 0 0 0 0 0 0 0 0 0 0 0 0 0 0 127 0" result="hardAlpha"/>
<feOffset dy="-4"/>
<feGaussianBlur stdDeviation="1"/>
<feComposite in2="hardAlpha" operator="arithmetic" k2="-1" k3="1"/>
<feColorMatrix type="matrix" values="0 0 0 0 0 0 0 0 0 0 0 0 0 0 0 0 0 0 0.25 0"/>
<feBlend mode="normal" in2="shape" result="effect1_innerShadow_217_1085"/>
</filter>
</defs>
</svg>
