<svg width="100" height="89" viewBox="0 0 100 89" fill="none" xmlns="http://www.w3.org/2000/svg">
<g filter="url(#filter0_i_25_690)">
<path d="M99.2427 41.6453C100.252 43.4118 100.252 45.5882 99.2427 47.3547L77.069 86.1453C76.0593 87.9118 74.1932 89 72.1736 89H27.8264C25.8068 89 23.9407 87.9118 22.931 86.1453L0.757322 47.3547C-0.25244 45.5882 -0.252441 43.4118 0.75732 41.6453L22.931 2.85468C23.9407 1.0882 25.8068 -8.91605e-08 27.8264 0L72.1736 1.9579e-06C74.1932 2.04706e-06 76.0593 1.0882 77.069 2.85468L99.2427 41.6453Z" fill="#479AFF"/>
</g>
<path d="M53.3332 24.3333V34.3333C53.333 34.8925 53.4734 35.4427 53.7415 35.9333L62.9249 52.7333C63.2027 53.241 63.3435 53.8123 63.3335 54.3909C63.3235 54.9695 63.163 55.5356 62.8679 56.0333C62.5728 56.5311 62.1531 56.9435 61.6502 57.2299C61.1474 57.5163 60.5786 57.6668 59.9999 57.6667H39.9999C39.4212 57.6668 38.8524 57.5163 38.3495 57.2299C37.8467 56.9435 37.427 56.5311 37.1319 56.0333C36.8367 55.5356 36.6763 54.9695 36.6663 54.3909C36.6563 53.8123 36.7971 53.241 37.0749 52.7333L46.2582 35.9333C46.5264 35.4427 46.6668 34.8925 46.6665 34.3333V24.3333" stroke="white" stroke-width="2" stroke-linecap="round" stroke-linejoin="round"/>
<path d="M40.7549 46H59.2449" stroke="white" stroke-width="2" stroke-linecap="round" stroke-linejoin="round"/>
<path d="M44.1667 24.3333H55.8334" stroke="white" stroke-width="2" stroke-linecap="round" stroke-linejoin="round"/>
<defs>
<filter id="filter0_i_25_690" x="0" y="-2" width="100" height="91" filterUnits="userSpaceOnUse" color-interpolation-filters="sRGB">
<feFlood flood-opacity="0" result="BackgroundImageFix"/>
<feBlend mode="normal" in="SourceGraphic" in2="BackgroundImageFix" result="shape"/>
<feColorMatrix in="SourceAlpha" type="matrix" values="0 0 0 0 0 0 0 0 0 0 0 0 0 0 0 0 0 0 127 0" result="hardAlpha"/>
<feOffset dy="-4"/>
<feGaussianBlur stdDeviation="1"/>
<feComposite in2="hardAlpha" operator="arithmetic" k2="-1" k3="1"/>
<feColorMatrix type="matrix" values="0 0 0 0 0 0 0 0 0 0 0 0 0 0 0 0 0 0 0.25 0"/>
<feBlend mode="normal" in2="shape" result="effect1_innerShadow_25_690"/>
</filter>
</defs>
</svg>
