<svg width="100" height="89" viewBox="0 0 100 89" fill="none" xmlns="http://www.w3.org/2000/svg">
<g filter="url(#filter0_i_217_1287)">
<path d="M99.2427 41.6453C100.252 43.4118 100.252 45.5882 99.2427 47.3547L77.069 86.1453C76.0593 87.9118 74.1932 89 72.1736 89H27.8264C25.8068 89 23.9407 87.9118 22.931 86.1453L0.757322 47.3547C-0.25244 45.5882 -0.252441 43.4118 0.75732 41.6453L22.931 2.85468C23.9407 1.0882 25.8068 -8.91605e-08 27.8264 0L72.1736 1.9579e-06C74.1932 2.04706e-06 76.0593 1.0882 77.069 2.85468L99.2427 41.6453Z" fill="#479AFF"/>
</g>
<path d="M34.9499 42.5333C34.4578 42.829 34.0505 43.2467 33.7672 43.746C33.484 44.2453 33.3345 44.8093 33.3333 45.3833V50.7833C33.3345 51.3574 33.484 51.9214 33.7672 52.4207C34.0505 52.92 34.4578 53.3377 34.9499 53.6333L39.9499 56.6333C40.4684 56.9448 41.0618 57.1094 41.6666 57.1094C42.2714 57.1094 42.8648 56.9448 43.3833 56.6333L49.9999 52.6667V43.5L41.6666 38.5L34.9499 42.5333Z" stroke="white" stroke-width="2" stroke-linecap="round" stroke-linejoin="round"/>
<path d="M41.6666 48.5L33.7666 43.75" stroke="white" stroke-width="2" stroke-linecap="round" stroke-linejoin="round"/>
<path d="M41.6667 48.5L50.0001 43.5" stroke="white" stroke-width="2" stroke-linecap="round" stroke-linejoin="round"/>
<path d="M41.6667 48.5V57.1167" stroke="white" stroke-width="2" stroke-linecap="round" stroke-linejoin="round"/>
<path d="M50 43.5V52.6667L56.6167 56.6333C57.1351 56.9448 57.7285 57.1094 58.3333 57.1094C58.9381 57.1094 59.5316 56.9448 60.05 56.6333L65.05 53.6333C65.5421 53.3377 65.9495 52.92 66.2327 52.4207C66.5159 51.9214 66.6654 51.3574 66.6667 50.7833V45.3833C66.6654 44.8093 66.5159 44.2453 66.2327 43.746C65.9495 43.2467 65.5421 42.829 65.05 42.5333L58.3333 38.5L50 43.5Z" stroke="white" stroke-width="2" stroke-linecap="round" stroke-linejoin="round"/>
<path d="M58.3333 48.5L50 43.5" stroke="white" stroke-width="2" stroke-linecap="round" stroke-linejoin="round"/>
<path d="M58.3333 48.5L66.2333 43.75" stroke="white" stroke-width="2" stroke-linecap="round" stroke-linejoin="round"/>
<path d="M58.3333 48.5V57.1167" stroke="white" stroke-width="2" stroke-linecap="round" stroke-linejoin="round"/>
<path d="M43.2834 28.3667C42.7913 28.6623 42.384 29.08 42.1007 29.5793C41.8175 30.0786 41.668 30.6426 41.6667 31.2167V38.5L50.0001 43.5L58.3334 38.5V31.2167C58.3322 30.6426 58.1827 30.0786 57.8994 29.5793C57.6162 29.08 57.2088 28.6623 56.7167 28.3667L51.7167 25.3667C51.1983 25.0552 50.6049 24.8906 50.0001 24.8906C49.3953 24.8906 48.8019 25.0552 48.2834 25.3667L43.2834 28.3667Z" stroke="white" stroke-width="2" stroke-linecap="round" stroke-linejoin="round"/>
<path d="M50.0001 34.3333L42.1001 29.5833" stroke="white" stroke-width="2" stroke-linecap="round" stroke-linejoin="round"/>
<path d="M50 34.3333L57.9 29.5833" stroke="white" stroke-width="2" stroke-linecap="round" stroke-linejoin="round"/>
<path d="M50 43.5V34.3333" stroke="white" stroke-width="2" stroke-linecap="round" stroke-linejoin="round"/>
<defs>
<filter id="filter0_i_217_1287" x="0" y="-2" width="100" height="91" filterUnits="userSpaceOnUse" color-interpolation-filters="sRGB">
<feFlood flood-opacity="0" result="BackgroundImageFix"/>
<feBlend mode="normal" in="SourceGraphic" in2="BackgroundImageFix" result="shape"/>
<feColorMatrix in="SourceAlpha" type="matrix" values="0 0 0 0 0 0 0 0 0 0 0 0 0 0 0 0 0 0 127 0" result="hardAlpha"/>
<feOffset dy="-4"/>
<feGaussianBlur stdDeviation="1"/>
<feComposite in2="hardAlpha" operator="arithmetic" k2="-1" k3="1"/>
<feColorMatrix type="matrix" values="0 0 0 0 0 0 0 0 0 0 0 0 0 0 0 0 0 0 0.25 0"/>
<feBlend mode="normal" in2="shape" result="effect1_innerShadow_217_1287"/>
</filter>
</defs>
</svg>
